<svg xmlns="http://www.w3.org/2000/svg" fill="none" width="128" height="128" version="1.0" viewBox="0 0 96 96"><path d="M4 12v4h8.5l6.4 15.6 6.4 15.5-3 5.9c-3.5 6.7-3.4 10 .5 13 2.3 1.9 4.1 2 27.8 2H76v-8H52c-13.2 0-24-.3-24-.6 0-.4.9-2.2 2.1-4l2.1-3.4h16.3c14.1 0 16.6-.2 18.3-1.7 2.3-2 17.2-28.4 17.2-30.5 0-3.6-1.8-3.8-32.7-3.8H21l-1.6-4-1.6-4H4v4zm65.5 18.7c-2.1 3.8-4.6 8.3-5.7 10l-2 3.3H32.5l-3.8-9.3c-2-5-3.7-9.5-3.7-10 0-.4 10.8-.7 24.1-.7h24.1l-3.7 6.7zM22.5 74.5C17.5 79.4 21 88 28 88c4.1 0 8-3.9 8-8s-3.9-8-8-8c-1.9 0-4 .9-5.5 2.5zM62.5 74.5C57.5 79.4 61 88 68 88c4.1 0 8-3.9 8-8s-3.9-8-8-8c-1.9 0-4 .9-5.5 2.5z" fill="#ffffff"/></svg>