<?xml version="1.0" standalone="no"?>
<!DOCTYPE svg PUBLIC "-//W3C//DTD SVG 20010904//EN"
 "http://www.w3.org/TR/2001/REC-SVG-20010904/DTD/svg10.dtd">
<svg version="1.0" xmlns="http://www.w3.org/2000/svg"
 width="96.000000pt" height="96.000000pt" viewBox="0 0 96.000000 96.000000"
 preserveAspectRatio="xMidYMid meet">

<g transform="translate(0.000000,96.000000) scale(0.100000,-0.100000)"
fill="#000000" stroke="none">
<path d="M52 868 c-29 -29 -6 -68 42 -68 30 0 32 -3 95 -157 l65 -156 -27 -47
c-34 -61 -35 -103 -2 -136 l24 -24 247 2 c222 3 248 5 258 21 8 12 8 22 0 35
-10 15 -35 17 -243 20 -127 1 -231 5 -231 9 0 3 9 21 21 39 l21 34 163 0 c141
0 166 2 183 17 23 20 172 284 172 305 0 36 -18 38 -326 38 l-302 0 -19 38
c-17 35 -20 37 -73 40 -34 2 -60 -2 -68 -10z"/>
<path d="M225 215 c-50 -49 -15 -135 55 -135 41 0 80 39 80 80 0 41 -39 80
-80 80 -19 0 -40 -9 -55 -25z"/>
<path d="M625 215 c-50 -49 -15 -135 55 -135 41 0 80 39 80 80 0 41 -39 80
-80 80 -19 0 -40 -9 -55 -25z"/>
</g>
</svg>
